<svg width="198" height="73" viewBox="0 0 198 73" fill="none" xmlns="http://www.w3.org/2000/svg">
<path d="M77.4219 13.4302C78.1422 13.6157 80.5438 15.6046 81.718 16.304C87.1936 19.565 93.8073 22.8755 100.296 23.0772C101.988 23.1298 101.364 20.6198 101.122 19.4801C103.886 21.7003 107.115 22.4826 110.508 22.991C109.863 25.3373 108.787 27.807 110.931 29.5964C109.716 29.4061 109.143 29.3069 107.945 28.9273C107.636 26.17 106.152 26.5843 103.747 26.4055L103.751 32.2292C107.984 32.1656 106.601 33.3793 111.407 31.3344C109.954 33.1676 109.003 34.3292 107.277 35.888C106.361 35.3468 104.87 34.5487 103.866 35.1857C103.644 36.345 103.699 42.224 104.38 43.2358C106.52 44.235 109.134 42.1766 110.784 40.9391C111.789 35.5337 113.057 29.8222 113.824 24.3556C113.933 23.5825 113.111 23.1263 112.53 22.75C115.368 21.6685 117.001 20.3799 118.556 17.823C119.497 18.6201 120.401 19.5077 121.296 20.3592L120.655 21.9363C120.974 24.4237 123.04 30.9211 123.753 33.7782C125.101 33.5839 126.79 33.101 128.091 32.7184C126.742 33.9282 125.668 34.8314 124.231 35.9344C124.995 38.8191 125.748 42.4434 127.045 45.1253C127.234 45.5136 127.944 45.9429 128.332 46.1813C124.125 50.1923 120.924 53.3224 116 56.5031C117.957 54.4748 118.766 53.092 119.882 50.5522C121.443 45.6099 120.373 42.2303 119.326 37.3991C117.639 37.8657 116.635 38.1641 115.37 39.3669C114.951 42.6912 114.087 44.8317 115.431 48.0076C111.377 51.3004 106.45 54.9246 102.213 57.9064C105.212 54.2443 108.386 49.403 109.712 44.8269C107.63 46.6264 102.442 48.5933 99.6796 49.8987C98.9268 49.4346 97.6075 48.4291 96.7865 47.8671C97.4602 47.3399 98.0417 46.7906 98.1944 45.8972C98.5766 43.3558 98.6188 40.6439 98.5698 38.0694C98.4884 33.7784 98.7422 29.3113 98.5081 25.0394C97.8303 24.0455 97.2398 23.6518 96.2384 23.0082C96.2047 27.9106 96.6771 29.7317 92.0351 32.6024C93.6953 33.4919 94.8863 34.4112 95.8627 36.0781C96.9652 37.9968 97.2617 40.2745 96.687 42.4102C95.6061 46.4923 92.4306 47.5151 89.3221 49.2973C89.6872 50.9831 90.2878 53.0225 90.7048 54.7826C87.8686 52.0944 84.8093 49.4867 81.9107 46.729C81.8497 39.3543 82.5293 31.7872 82.394 24.3803C82.3797 23.6058 83.0651 22.7113 83.0165 22.1915C82.7224 19.0523 79.5032 15.5874 77.4219 13.4302ZM90.4419 43.7409C92.6522 40.9091 92.6891 37.2435 89.6704 34.9753C88.9666 34.4407 88.1536 34.0675 87.2891 33.8825C87.2459 37.1511 87.1567 40.5539 87.2183 43.8104C87.5171 44.276 87.8356 44.8127 88.1883 45.2326C89.0668 44.7985 89.7337 44.437 90.4419 43.7409ZM87.3441 32.1268C88.4097 31.4182 89.0908 30.9842 90.0456 30.1219C94.2386 25.501 90.4275 25.5187 87.4524 23.6186C87.4061 26.4276 87.3251 29.3251 87.3441 32.1268ZM115.937 35.6569L117.201 35.2651L118.854 34.7878C118.578 33.4949 117.608 28.2018 117.17 27.2973L115.937 35.6569Z" fill="white"/>
<path d="M124.35 0C125.883 0.384997 138.915 10.0715 141.28 11.7943C149.222 17.5789 156.83 23.4061 165.375 28.3946C159.65 26.5934 157.986 26.0862 158.577 32.784C157.79 31.7687 156.775 30.4954 156.162 29.4282C154.007 25.6785 150.562 23.4236 147.075 21.0629C146.386 20.5959 146.025 20.0989 145.187 20.5116C142.995 23.6528 154.329 32.2694 156.413 34.6444C158.512 37.0366 160.722 39.1 162.69 41.7598C161.635 46.8663 155.831 50.0612 151.55 52.2995C155.43 54.3736 158.281 55.4091 162.285 57.9616C150.974 54.8219 144.754 55.6822 134.116 60.293C137.627 57.1944 141.178 54.14 144.767 51.1314C140.32 46.4748 140.656 44.5806 139.381 38.6233C138.882 36.2534 138.306 33.9009 137.655 31.5688C139.092 33.9822 141.02 36.3825 142.521 38.797C143.427 40.2539 144.609 41.9382 145.674 43.2689C145.839 44.8663 145.567 44.8537 146.847 45.9618C147.29 46.1812 147.656 46.2996 148.205 46.2649C150.39 46.0297 153.088 44.0565 154.634 42.6043C155.731 41.5751 152.826 39.04 152.143 38.3108C147.971 33.8512 142.308 30.2159 139.449 24.7243C138.813 23.5033 138.716 22.034 138.571 20.6873C137.012 21.1466 135.735 21.5025 134.23 22.1137C134.473 29.086 135.268 36.3717 135.704 43.3651C135.852 45.7313 136.624 46.077 138.814 46.4448C133.215 49.0762 133.887 51.2245 131.683 56.1589C128.451 63.398 122.959 69.5241 115.517 72.4617C120.427 69.3836 123.101 65.8146 125.743 60.7145C131.89 48.8473 129.274 36.4126 128.682 23.655C126.369 24.527 125.009 25.0079 123.58 27.0982C123.412 24.9715 123.035 23.3584 122.509 21.3024C128.283 18.3886 131.176 14.8007 129.848 8.05969C130.992 9.72706 132.074 11.6936 132.567 13.6845C132.822 14.7166 132.862 16.3017 133.341 17.2382C134.19 17.8456 137.307 18.0466 138.593 18.2363C138.956 17.0804 139.162 16.6092 139.683 15.5219C138.57 14.0558 136.865 12.3838 135.601 11.0026C132.024 7.09506 128.362 3.46482 124.35 0Z" fill="white"/>
<path d="M72.613 0.065918L72.7139 0.167889C68.4818 4.2529 60.9044 10.8984 57.6971 15.6106C64.9802 25.0863 62.073 43.927 53.4287 51.8211C56.8451 54.7508 60.2457 57.6995 63.6307 60.6671C61.8301 59.5621 59.572 58.7287 57.5812 58.0515C50.519 55.6506 45.3963 55.6774 38.1995 57.0791L34.7575 57.8984C38.4292 55.6648 40.9987 54.3941 44.8817 52.5678C42.4883 49.8038 40.703 47.4976 39.8815 43.7755C38.5175 37.5958 38.7483 31.2726 40.412 25.1843C38.1547 26.2078 35.3742 27.0811 32.9971 27.8863C46.5607 19.2705 59.3862 9.32558 72.613 0.065918ZM49.1087 47.9443L49.2658 48.1211C49.8129 47.7075 50.3107 46.9735 50.7749 46.4479C53.2792 43.6082 54.6438 39.2168 55.1173 35.4142C55.519 32.1883 56.3596 24.6663 54.449 21.7547C54.1915 21.3623 52.6375 19.9147 52.2125 19.6318L52.0877 19.7889C50.7526 21.4487 48.8891 22.9869 47.5049 24.6132C44.864 27.7158 44.7814 33.8115 45.1383 37.709C45.5101 41.7724 46.4069 44.7842 49.1087 47.9443Z" fill="white"/>
<path d="M8.17434 10.5354C13.7322 9.52359 36.6659 18.3987 41.0045 21.8481C36.9152 21.0685 13.9131 11.9641 21.7539 24.6394C23.8781 28.0731 29.4104 32.8724 32.5203 35.7503C34.1204 34.3284 35.9645 32.9121 37.6263 31.5264C37.557 33.3344 37.5439 35.2035 37.5077 37.017C36.9649 37.4435 36.3455 38.0075 35.8142 38.4669C36.4033 38.8931 37.2242 39.6287 37.8008 40.1133C37.9056 42.1511 38.3258 44.1606 39.0459 46.069C37.5794 44.6515 34.7309 42.451 33.0886 41.1046C31.986 42.028 30.832 43.1235 29.8246 44.1495C25.2712 48.7887 6.49211 64.4759 25.9443 62.1855C28.6751 61.8019 31.3813 61.2605 34.0493 60.5628C35.426 60.1981 37.9787 59.3805 39.2736 59.1927C35.7909 60.7743 31.9728 61.9487 28.345 63.1942C22.0073 65.3693 9.6986 70.0165 3.18498 69.7118C2.23479 69.6676 1.15955 69.3803 0.527791 68.6242C0.0572342 68.0607 -0.0549144 67.3646 0.0223881 66.6542C0.619856 61.1547 24.5541 42.3263 29.7338 38.1038L28.3031 36.9743C24.3493 33.8125 20.4447 30.5895 16.5909 27.3064C13.6927 24.8375 -3.04285 11.7027 8.17434 10.5354Z" fill="white"/>
<path d="M187.036 10.5348C187.753 10.421 188.999 10.4573 189.687 10.5104C191.609 10.658 193.721 11.3937 193.236 13.7842C192.932 15.2936 191.977 16.7758 190.977 17.915C186.63 22.8704 181.417 26.9933 176.413 31.253C173.987 33.28 170.537 36.3442 168.044 38.0488C174.362 43.28 194.664 58.9293 197.533 65.3033C197.929 66.1825 198.208 67.3301 197.799 68.2551C197.545 68.8312 197.001 69.1516 196.423 69.3442C194.282 70.0577 191.601 69.6363 189.417 69.2227C185.334 68.4492 181.234 67.0349 177.283 65.7594C171.963 64.0436 166.64 62.3025 161.438 60.2662C160.288 59.8164 159.121 59.5875 158.007 59.0271C158.28 58.9435 161.937 60.05 162.443 60.1936C186.994 66.7255 183.476 57.9506 169.116 45.242C167.778 44.0582 166.162 42.1434 164.76 41.1411L164.363 41.3352C162.927 40.044 162.167 38.2982 160.272 36.8004C160.22 35.106 160.032 33.1079 159.916 31.3938C161.564 32.7979 163.517 34.3057 165.221 35.6897C167.311 33.5889 185.25 19.0583 173.935 17.8891C169.915 17.4738 161.084 21.0504 156.609 21.7687C157.874 20.9283 160.733 19.5966 162.184 18.9394C169.187 15.7679 179.518 11.3173 187.036 10.5348Z" fill="white"/>
<path d="M67.3411 8.38281C67.3784 8.56402 67.3794 8.50246 67.3637 8.68462C67.0974 11.79 67.3715 13.9893 69.3296 16.5809C71.9984 20.1125 76.256 21.0885 80.4084 21.65L81.3058 24.135C80.8381 24.0886 80.2607 24.0725 79.7818 24.0454C80.5075 29.3288 78.2623 30.9734 73.987 33.6233C78.8647 34.7629 78.5903 35.7116 79.2891 40.4684C80.2277 46.8551 81.8903 53.6174 86.3314 58.5502C79.803 54.8881 74.7645 49.9884 73.981 42.3405C73.5247 37.8844 73.5124 36.426 68.854 35.6799C68.8918 39.3256 68.5357 42.9814 68.5894 46.6704C68.4309 56.4761 73.7104 66.73 81.7335 72.3416C74.9929 69.8618 69.1676 63.0868 66.216 56.7049C64.1006 52.1304 64.8569 49.2055 59.5547 46.683C59.9211 46.5567 60.2895 46.4304 60.6465 46.2789C61.4688 45.9316 62.1044 45.3208 62.4153 44.4747C63.2056 42.3263 64.4224 22.9391 63.6268 21.4621C63.2073 20.6833 62.4314 20.5108 61.6518 20.2514C63.0354 19.6565 64.5291 19.0334 65.7463 18.1526C65.4638 14.0706 64.9971 12.0385 67.3411 8.38281ZM69.1182 32.6321C70.0886 31.9181 71.089 31.2119 71.9946 30.4198C77.2839 25.3276 73.5692 25.2673 69.6147 22.5646C69.5345 25.9383 69.2467 29.2686 69.1182 32.6321Z" fill="white"/>
</svg>
